<?xml version="1.0" encoding="utf-8"?>
<!-- Generator: Adobe Illustrator 24.2.3, SVG Export Plug-In . SVG Version: 6.00 Build 0)  -->
<svg version="1.1" id="Layer_1" xmlns="http://www.w3.org/2000/svg" xmlns:xlink="http://www.w3.org/1999/xlink" x="0px" y="0px"
	 viewBox="0 0 2064.6 1230.3" style="enable-background:new 0 0 2064.6 1230.3;" xml:space="preserve">
<style type="text/css">
	.st0{fill:#0232AA;}
</style>
<g>
	<path class="st0" d="M234.9,1087.3c12.1-26.8,23.5-52.1,35-77.4c104-229.6,208-459.2,311.9-688.8c25.6-56.5,51.1-112.9,76.1-169.7
		c4-9.1,9.2-11.3,18.3-11.2c80,0.3,160.1,0.2,240.1-0.1c8.1,0,12.5,2.3,16.8,9.7c96.7,166.8,193.7,333.3,290.7,499.9
		c6.3,10.9,12,22.2,19.2,32.4c6,8.5,6.3,15.9,1.4,24.8c-4.5,8.2-7.8,17-12.4,27.3c-21.8-16.4-42.8-32.2-63.9-47.8
		c-91.5-67.5-182.8-135.2-274.8-202c-15.1-11-22.8-26.1-32-40.7c-15.2-24.3-30-48.8-46.2-75.4c-6.8,14.1-12.6,25.6-17.9,37.3
		c-75.9,167.8-151.8,335.7-227.6,503.6c-25.5,56.5-50.6,113.2-76.5,169.5c-2.1,4.6-8.7,10-13.3,10c-79.1,0.5-158.3,0.3-237.4,0.2
		C240.6,1088.7,238.8,1088,234.9,1087.3z"/>
	<path class="st0" d="M1011.2,649.9c73.9,82.9,147.8,165.8,223.3,250.5c3.2-6.2,5.7-10.6,7.8-15.2c51.6-116.7,102.8-233.6,155-350
		c57.6-128.3,116.2-256.1,174.1-384.3c3.4-7.4,7-10.9,15.7-10.8c78.7,0.3,157.4,0.1,236.1,0.1c1.8,0,3.5,0.3,6.6,0.6
		c-1.3,3.8-2,7.1-3.4,10.1c-58.5,125.9-117.5,251.6-175.4,377.8c-83.7,182.6-166.7,365.5-249.8,548.3c-4.1,9-8.9,12.4-19.1,12.3
		c-71.9-0.2-143.9,0.3-215.8,1c-9.2,0.1-14.7-2.6-19.5-10.6c-15.1-25-32.7-48.6-45.9-74.6c-8.7-17.3-11.8-37.5-16.8-56.5
		c-25.1-95.1-49.9-190.3-74.8-285.5c-1-3.7-1-7.6-1.4-11.4C1009,651.2,1010.1,650.6,1011.2,649.9z"/>
	<path class="st0" d="M874.9,579.6c28.9,57.8,59.6,118.3,89.5,179.1c28.2,57.4,12.4,119.7-37.5,149.4
		c-36.6,21.8-74.1,21.2-109.7-1.5c-36.2-23.1-50.9-57.8-48-100.4c1.7-26,13.9-48,25.4-70.4C821.9,682.8,849.1,629.7,874.9,579.6z"/>
</g>
</svg>
