<?xml version="1.0" encoding="UTF-8"?>
<svg version="1.1" xmlns="http://www.w3.org/2000/svg" width="238" height="231">
<path d="M0 0 C7.59 0 15.18 0 23 0 C24.36684439 4.10053318 22.75715622 6.40724184 21.0234375 10.12109375 C20.36497956 11.57639772 19.70712075 13.03197289 19.04980469 14.48779297 C18.53734192 15.61130157 18.53734192 15.61130157 18.01452637 16.75750732 C16.43571358 20.24728957 14.92546617 23.7657851 13.4140625 27.28515625 C12.79541485 28.71877603 12.17651344 30.15228632 11.55737305 31.58569336 C11.24263031 32.3149704 10.92788757 33.04424744 10.60360718 33.79562378 C4.69246129 47.48838668 -1.23558086 61.17384645 -7.18658447 74.84933472 C-7.93223594 76.56337914 -8.67732022 78.27767042 -9.42181396 79.99221802 C-10.46319357 82.39004729 -11.50670232 84.78693883 -12.55078125 87.18359375 C-12.85636459 87.88825775 -13.16194794 88.59292175 -13.47679138 89.31893921 C-18.45665608 100.72832804 -18.45665608 100.72832804 -21 102 C-23.95377112 102.20411054 -26.85600689 102.32382545 -29.8125 102.375 C-31.02389648 102.43107422 -31.02389648 102.43107422 -32.25976562 102.48828125 C-36.42615501 102.54970222 -38.35798662 102.50622062 -41.71484375 99.859375 C-42.46894531 98.91578125 -43.22304687 97.9721875 -44 97 C-44.92411563 96.01052942 -45.85680856 95.0290164 -46.796875 94.0546875 C-47.78318326 92.99659046 -48.76749188 91.93662664 -49.75 90.875 C-50.27295654 90.31022949 -50.79591309 89.74545898 -51.3347168 89.16357422 C-55.39902683 84.73621313 -59.20138535 80.13449937 -62.9609375 75.4453125 C-65.34293922 72.58873573 -67.88933775 69.99116997 -70.58984375 67.4375 C-72 66 -72 66 -74 63 C-73.82660988 54.85066429 -69.66060795 47.13392899 -66 40 C-65.01 40 -64.02 40 -63 40 C-61.62464661 41.97133986 -60.29788956 43.97681922 -59 46 C-57.35128511 47.68442713 -55.68049721 49.34727961 -54 51 C-51.47962883 53.62672044 -48.99015556 56.2821559 -46.5 58.9375 C-45.84902344 59.62779297 -45.19804688 60.31808594 -44.52734375 61.02929688 C-41.6313952 64.11538347 -38.80208466 67.19952257 -36.15625 70.50390625 C-35.4446875 71.32761719 -34.733125 72.15132813 -34 73 C-33.34 73 -32.68 73 -32 73 C-31.76104004 72.42709229 -31.52208008 71.85418457 -31.27587891 71.26391602 C-24.83570549 55.85874549 -18.20851591 40.53986937 -11.5 25.25 C-11.1017804 24.34105988 -10.70356079 23.43211975 -10.29327393 22.49563599 C-9.14526715 19.87648876 -7.99494283 17.2583732 -6.84375 14.640625 C-6.50036591 13.85717209 -6.15698181 13.07371918 -5.80319214 12.26652527 C-5.47819733 11.5292067 -5.15320251 10.79188812 -4.81835938 10.03222656 C-4.5384314 9.39561096 -4.25850342 8.75899536 -3.97009277 8.10308838 C-2.71025335 5.37185098 -1.34512848 2.69025695 0 0 Z " fill="#E5E5E5" transform="translate(167,70)"/>
<path d="M0 0 C8.66731254 0.20206955 8.66731254 0.20206955 12.3347168 3.8996582 C13.48908 5.42544845 14.59178926 6.99133146 15.6472168 8.5871582 C17.02928567 10.30664624 18.42613846 12.01431824 19.8347168 13.7121582 C20.57592773 14.63641602 21.31713867 15.56067383 22.08081055 16.51293945 C25.5380874 20.73234146 29.29712871 24.677722 33.04248047 28.64038086 C34.08686928 29.74782771 35.12525196 30.8609754 36.15698242 31.98022461 C37.14682441 33.04758043 38.15614115 34.09721421 39.18432617 35.12768555 C41.51174298 37.59715504 42.63984486 38.98921224 42.68237305 42.4387207 C41.3795012 46.40141772 39.81634341 50.16972447 38.0847168 53.9621582 C37.75536133 54.69821289 37.42600586 55.43426758 37.08666992 56.19262695 C36.27973875 57.99360378 35.46433419 59.79078001 34.6472168 61.5871582 C30.6472168 61.5871582 30.6472168 61.5871582 29.11206055 60.2590332 C28.60803711 59.62481445 28.10401367 58.9905957 27.5847168 58.3371582 C24.59175828 54.70330922 21.48216411 51.21658304 18.2722168 47.7746582 C13.78344061 42.92523207 9.55817202 37.92451644 5.42456055 32.7668457 C3.68076496 30.55326861 3.68076496 30.55326861 1.6472168 28.5871582 C-2.52797117 36.7080081 -6.30910818 44.92352757 -9.8527832 53.3371582 C-10.89090788 55.77766768 -11.92988707 58.21779704 -12.9699707 60.6574707 C-13.23893158 61.28918182 -13.50789246 61.92089294 -13.78500366 62.57174683 C-16.84138218 69.74572617 -19.92991238 76.90562057 -23.04101562 84.05603027 C-23.66376956 85.48940305 -24.28471188 86.92356433 -24.90380859 88.35852051 C-25.77033126 90.36640539 -26.64281215 92.37159618 -27.5168457 94.3762207 C-28.01651855 95.52815918 -28.51619141 96.68009766 -29.03100586 97.86694336 C-30.3527832 100.5871582 -30.3527832 100.5871582 -32.3527832 102.5871582 C-34.59936523 102.81420898 -34.59936523 102.81420898 -37.3605957 102.7824707 C-38.83979492 102.77280273 -38.83979492 102.77280273 -40.34887695 102.76293945 C-41.89768555 102.73780273 -41.89768555 102.73780273 -43.4777832 102.7121582 C-45.03819336 102.69862305 -45.03819336 102.69862305 -46.63012695 102.68481445 C-49.20457413 102.66119567 -51.77856533 102.62825969 -54.3527832 102.5871582 C-55.91504526 97.85672385 -53.94744451 94.60069256 -51.9699707 90.2824707 C-51.60425461 89.45943954 -51.23853851 88.63640839 -50.86174011 87.78843689 C-49.66079404 85.09157582 -48.44418723 82.40207758 -47.2277832 79.7121582 C-46.39373774 77.84481026 -45.56098278 75.97688541 -44.72949219 74.10839844 C-43.05829238 70.35473248 -41.38239171 66.6032257 -39.70288086 62.85327148 C-36.55284998 55.80872632 -33.47601788 48.73335729 -30.4152832 41.6496582 C-29.90304199 40.46750732 -29.39080078 39.28535645 -28.86303711 38.06738281 C-26.26357531 32.0565965 -23.68958387 26.03571192 -21.14575195 20.0012207 C-20.63326904 18.7855542 -20.12078613 17.5698877 -19.59277344 16.31738281 C-18.62210755 14.00944693 -17.6540394 11.70041623 -16.68896484 9.39013672 C-16.26349365 8.3762085 -15.83802246 7.36228027 -15.3996582 6.31762695 C-15.02679688 5.42454834 -14.65393555 4.53146973 -14.26977539 3.61132812 C-11.93612378 -1.53997793 -4.97359634 0.04395251 0 0 Z " fill="#E5E5E5" transform="translate(99.352783203125,69.412841796875)"/>
<path d="M0 0 C0.33 0 0.66 0 1 0 C1 76.23 1 152.46 1 231 C0.34 230.67 -0.32 230.34 -1 230 C-0.67 154.1 -0.34 78.2 0 0 Z " fill="#9E9E9E" transform="translate(237,0)"/>
<path d="M0 0 C7.59 0 15.18 0 23 0 C24.39211215 4.17633644 22.9535579 5.78960515 21.0625 9.6875 C20.21365234 11.45673828 20.21365234 11.45673828 19.34765625 13.26171875 C18.90292969 14.16535156 18.45820313 15.06898437 18 16 C17.67 15.34 17.34 14.68 17 14 C18.44750596 9.90157135 20.26111412 5.98671398 22 2 C14.74 2 7.48 2 0 2 C-0.33 2.66 -0.66 3.32 -1 4 C-0.67 2.68 -0.34 1.36 0 0 Z " fill="#383838" transform="translate(167,70)"/>
<path d="M0 0 C0.33 0.66 0.66 1.32 1 2 C-1.44444444 7.44444444 -1.44444444 7.44444444 -3 9 C-4.63472882 9.08700342 -6.27314055 9.10701063 -7.91015625 9.09765625 C-8.89951172 9.09443359 -9.88886719 9.09121094 -10.90820312 9.08789062 C-11.94912109 9.07951172 -12.99003906 9.07113281 -14.0625 9.0625 C-15.10728516 9.05798828 -16.15207031 9.05347656 -17.22851562 9.04882812 C-19.8190666 9.03699913 -22.40950559 9.02051689 -25 9 C-25.58984375 7.140625 -25.58984375 7.140625 -26 5 C-24.5625 2.75 -24.5625 2.75 -23 1 C-23.33 2.98 -23.66 4.96 -24 7 C-13.605 6.505 -13.605 6.505 -3 6 C-2.01 4.02 -1.02 2.04 0 0 Z " fill="#414141" transform="translate(70,163)"/>
<path d="M0 0 C0.99 0 1.98 0 3 0 C4.6875 2 4.6875 2 6 4 C5.67 4.66 5.34 5.32 5 6 C4.01 6 3.02 6 2 6 C2 6.66 2 7.32 2 8 C0.125 10.125 0.125 10.125 -2 12 C-2.66 12 -3.32 12 -4 12 C-4 12.66 -4 13.32 -4 14 C-4.66 13.67 -5.32 13.34 -6 13 C-4.02 8.71 -2.04 4.42 0 0 Z " fill="#828282" transform="translate(101,110)"/>
<path d="M0 0 C0.92662823 2.96908942 1.12413247 3.70725074 -0.14453125 6.69921875 C-0.69496094 7.68535156 -1.24539062 8.67148438 -1.8125 9.6875 C-4.53518891 14.83597208 -6.04555268 19.27331606 -7 25 C-7.99 25 -8.98 25 -10 25 C-9.39768601 21.43330196 -8.43842499 18.42191371 -6.93359375 15.13671875 C-6.53076172 14.25048828 -6.12792969 13.36425781 -5.71289062 12.45117188 C-5.29201172 11.53916016 -4.87113281 10.62714844 -4.4375 9.6875 C-4.01275391 8.75615234 -3.58800781 7.82480469 -3.15039062 6.86523438 C-2.10493657 4.5746328 -1.05468244 2.28636341 0 0 Z " fill="#464646" transform="translate(73,102)"/>
<path d="M0 0 C0.66 0 1.32 0 2 0 C2 0.66 2 1.32 2 2 C3.1446875 2.12375 3.1446875 2.12375 4.3125 2.25 C7 3 7 3 8.8125 4.875 C10 7 10 7 10 10 C10.66 10 11.32 10 12 10 C13.6875 12.375 13.6875 12.375 15 15 C14.67 15.66 14.34 16.32 14 17 C11.84633423 14.73648522 9.70349021 12.46300268 7.5625 10.1875 C6.95083984 9.54490234 6.33917969 8.90230469 5.70898438 8.24023438 C5.12568359 7.61826172 4.54238281 6.99628906 3.94140625 6.35546875 C3.40201416 5.78465576 2.86262207 5.21384277 2.30688477 4.62573242 C1 3 1 3 0 0 Z " fill="#828282" transform="translate(94,133)"/>
<path d="M0 0 C0.33 0.66 0.66 1.32 1 2 C0.22265625 3.9453125 0.22265625 3.9453125 -0.9375 6.125 C-1.31777344 6.84945312 -1.69804687 7.57390625 -2.08984375 8.3203125 C-2.39019531 8.87460938 -2.69054687 9.42890625 -3 10 C-7.1424367 8.61918777 -8.32203099 6.40174442 -11 3 C-10.34 2.67 -9.68 2.34 -9 2 C-9 2.66 -9 3.32 -9 4 C-5.9254644 3.2236068 -5.9254644 3.2236068 -4 1 C-3.34 1.66 -2.68 2.32 -2 3 C-1.34 2.01 -0.68 1.02 0 0 Z " fill="#8E8E8E" transform="translate(136,122)"/>
<path d="M0 0 C0.66 0 1.32 0 2 0 C1.67 2.31 1.34 4.62 1 7 C0.01 7 -0.98 7 -2 7 C-1.125 2.25 -1.125 2.25 0 0 Z " fill="#838383" transform="translate(65,120)"/>
</svg>
