<?xml version="1.0" encoding="utf-8"?>
<!-- Generator: Adobe Illustrator 24.2.3, SVG Export Plug-In . SVG Version: 6.00 Build 0)  -->
<svg version="1.1" id="Layer_1" xmlns="http://www.w3.org/2000/svg" xmlns:xlink="http://www.w3.org/1999/xlink" x="0px" y="0px"
	 viewBox="0 0 4873 636.9" style="enable-background:new 0 0 4873 636.9;" xml:space="preserve">
<style type="text/css">
	.st0{fill:#033892;}
</style>
<g>
	<path class="st0" d="M1679.8,550.2c-31.6,0-63.3,0.9-94.9-0.8c-5.8-0.3-12-10.3-16.5-16.8c-28.2-40.3-56.3-80.6-83.6-121.4
		c-8.2-12.3-18.1-17.1-32.4-16.8c-24.2,0.6-48.5,0.2-76.8,0.2c0,53.5,0,102.8,0,154.3c-32.3,0-60.4,0-91.6,0
		c0-155.8,0-310.7,0-468.1c7.8-1.2,15.6-3.3,23.3-3.3c68.3-0.2,136.6-1.1,204.8,0.4c40,0.8,78.8,9.7,111.1,35.8
		c49.5,40.2,66.8,113.1,43.1,175c-14.2,36.9-38,64.1-74.3,80.4c-6.5,2.9-12.1,7.6-21.1,13.4c38.4,55.1,75.4,108.2,112.5,161.4
		C1682.2,546,1681,548.1,1679.8,550.2z M1376.9,309c3.5,1.5,6.5,3.9,9.6,3.9c42.3-0.2,84.8,2.4,126.7-2c44.2-4.6,71-39.6,68.4-80.1
		c-2.8-43.6-31.2-70.6-78.4-72.2c-35.4-1.2-70.9-0.5-106.4-0.4c-5.8,0-11.6,1.9-19.8,3.3C1376.9,211.5,1376.9,260,1376.9,309z"/>
	<path class="st0" d="M3680.5,549.7c-38.8,0-71.1,0-105.9,0c-28.1-41.1-58-81.8-84.2-124.7c-14.4-23.5-31-33.8-58.2-30.9
		c-18.7,2-37.8,0.4-61.7,0.4c0,53.6,0,103.4,0,154.9c-33.1,0-61.3,0-92.2,0c0-156.2,0-311.2,0-468.7c7.8-1.1,15.6-3.1,23.3-3.1
		c67.6-0.2,135.2-0.7,202.7,0.2c48.5,0.7,93.3,13.3,128,50c67.8,71.6,45.2,196.9-43,240.8c-7.7,3.8-15.3,8.1-27.1,14.4
		C3601.4,438.4,3639.3,491.6,3680.5,549.7z M3371.9,309.6c4.4,1.7,6.9,3.4,9.4,3.5c40.9,0.3,82.2,3.4,122.7-0.9
		c19.8-2.1,41.6-14.7,56.2-29c21.3-20.9,24.7-49.9,12.4-78.1c-13.9-31.7-41.5-44.5-74-46.1c-33.4-1.6-66.9-0.9-100.3-0.8
		c-7.9,0-15.8,1.8-26.3,3C3371.9,211.2,3371.9,259.7,3371.9,309.6z"/>
	<path class="st0" d="M4282.7,549.7c-117,0-231.9,0-349.3,0c0-156.8,0-311.9,0-469.8c115.3,0,229.3,0,346.3,0c0,24.7,0,49.1,0,77.6
		c-83.5,0-166.3,0-252.3,0c0,39.4,0,74.7,0,115.4c73.2,0,146.2,0,221.1,0c0,29.1,0,53,0,80.9c-74.4,0-146.9,0-221.9,0
		c0,40.8,0,77.6,0,118.5c85.7,0,169.8,0,256.1,0C4282.7,499.6,4282.7,522.9,4282.7,549.7z"/>
	<path class="st0" d="M2910.4,79.4c29.4,0,56.8,0,87.3,0c0.9,9.1,2.6,18.2,2.7,27.4c0.4,79.8,0.8,159.7,0.5,239.5
		c-0.6,144.3-92.6,226.4-236.7,211.8c-108.3-11-176.5-84.8-177.4-193.5c-0.7-87.3-0.2-174.7-0.1-262c0-7.2,1.3-14.5,2.1-23.1
		c30.6,0,59.2,0,90.8,0c0,18.4,0,34.6,0,50.8c0.1,77.1-0.4,154.2,0.4,231.3c0.5,45.6,17.6,84.5,61.6,102.2
		c45.1,18.1,91.3,18,131-16.3c28.5-24.6,36.4-58.6,36.6-94.4c0.5-83.9,0.1-167.8,0.2-251.8C2909.5,94.7,2910,88.1,2910.4,79.4z"/>
	<path class="st0" d="M593.9,79.1c29.5,0,56.4,0,85.4,0c0.9,10.1,2.2,18.7,2.2,27.2c0.2,83.3-0.1,166.5,0.4,249.8
		c0.3,53.2,25,96,66.8,109.9c79.6,26.5,160.2-7.1,160.9-106.3c0.6-80.5-0.4-161.1-0.5-241.6c0-12.1,1-24.2,1.7-38.3
		c30.3,0,58.3,0,88.3,0c1.1,8.2,2.8,15.4,2.8,22.6c0.2,86,2.3,172.1-0.2,258c-5.2,174.9-143,216.7-261.3,192.7
		c-91.4-18.5-146.4-84.3-148.8-177.8c-2.4-92.8-0.6-185.6-0.4-278.4C591.1,91.5,592.7,86.3,593.9,79.1z"/>
	<path class="st0" d="M2314.4,79.7c0,26.7,0,50.8,0,78.8c-48.5,0-95,0-145.6,0c0,132.2,0,260.5,0,390.9c-31.6,0-59.1,0-90,0
		c-1-10.2-2.7-20-2.7-29.7c-0.3-110.6-0.3-221.2-0.5-331.8c0-8.6-1.5-17.1-2.7-29.5c-47.1,0-92.3,0-139.7,0c0-28.1,0-52.1,0-78.7
		C2059.6,79.7,2185.9,79.7,2314.4,79.7z"/>
</g>
</svg>
